<svg width="135" height="18" viewBox="0 0 135 18" fill="none" xmlns="http://www.w3.org/2000/svg">
<path d="M21.5257 17.2206L12.6464 3.35116L3.62023 17.2206H0L11.4478 0H13.8205L25.1949 17.2206H21.5257Z" fill="white"/>
<path d="M26.7915 17.2206V0H30.0693V14.6766H44.0366V17.2206H26.7915Z" fill="white"/>
<path d="M49.5611 10.8607V17.2206H46.3078V0H60.4218C61.4003 0 62.2319 0.105998 62.9168 0.317994C63.6017 0.513682 64.1562 0.799061 64.5802 1.17413C65.0205 1.53289 65.3385 1.96504 65.5342 2.47056C65.7299 2.97609 65.8277 3.5387 65.8277 4.15838V6.70232C65.8277 7.322 65.7299 7.88461 65.5342 8.39014C65.3385 8.89566 65.0205 9.33596 64.5802 9.71103C64.1562 10.0698 63.6017 10.3552 62.9168 10.5672C62.2319 10.7629 61.4003 10.8607 60.4218 10.8607H49.5611ZM62.5744 4.13392C62.5744 3.07394 61.8569 2.54395 60.4218 2.54395H49.5611V8.31675H60.4218C61.8569 8.31675 62.5744 7.78676 62.5744 6.72679V4.13392Z" fill="white"/>
<path d="M85.4363 17.2206V9.39304H71.3467V17.2206H68.0934V0H71.3467V6.84909H85.4363V0H88.6896V17.2206H85.4363Z" fill="white"/>
<path d="M111.797 17.2206L102.918 3.35116L93.892 17.2206H90.2717L101.719 0H104.092L115.467 17.2206H111.797Z" fill="white"/>
<path d="M116.965 17.2206V14.6766H129.269C130.704 14.6766 131.422 14.1466 131.422 13.0867V10.0046C131.422 8.94459 130.704 8.4146 129.269 8.4146H116.965V0H134.113V2.54395H120.219V5.87065H129.269C130.248 5.87065 131.079 5.97665 131.764 6.18864C132.449 6.38433 133.004 6.66971 133.428 7.04478C133.868 7.40354 134.186 7.83569 134.382 8.34121C134.577 8.84674 134.675 9.40935 134.675 10.029V13.0622C134.675 13.6819 134.577 14.2445 134.382 14.75C134.186 15.2555 133.868 15.6958 133.428 16.0709C133.004 16.4297 132.449 16.715 131.764 16.927C131.079 17.1227 130.248 17.2206 129.269 17.2206H116.965Z" fill="white"/>
</svg>
