<svg width="150" height="150" viewBox="0 0 150 150" fill="none" xmlns="http://www.w3.org/2000/svg">
<g clip-path="url(#clip0)">
<path d="M75.003 150.006C116.426 150.006 150.006 116.426 150.006 75.003C150.006 33.58 116.426 0 75.003 0C33.58 0 0 33.58 0 75.003C0 116.426 33.58 150.006 75.003 150.006Z" fill="#616161"/>
<path d="M75.003 122.731C48.6402 122.731 27.2755 101.366 27.2755 75.003C27.2755 48.6402 48.6402 27.2755 75.003 27.2755C88.1784 27.2755 100.109 32.6182 108.751 41.2547L128.037 21.9691C114.463 8.39478 95.7089 0 75.003 0C33.5791 0 0 33.5791 0 75.003C0 116.427 33.5791 150.006 75.003 150.006C95.715 150.006 114.463 141.611 128.043 128.043L108.757 108.757C100.109 117.388 88.1784 122.731 75.003 122.731Z" fill="#9E9E9E"/>
<path d="M122.731 75.0028H98.8639C98.8639 61.8274 88.1785 51.136 74.9971 51.136C61.8157 51.136 51.1364 61.8214 51.1364 75.0028C51.1364 81.4213 53.6748 87.2414 57.8026 91.5385L57.7845 91.5566L87.3324 121.105L87.3384 121.111C107.718 115.671 122.731 97.0927 122.731 75.0028Z" fill="#424242"/>
<path d="M150 75.0029H122.725C122.725 97.0929 107.706 115.671 87.3386 121.111L108.401 142.173C133.06 129.886 150 104.424 150 75.0029Z" fill="#616161"/>
<path d="M75.003 149.148C33.7242 149.148 0.24175 115.798 0.00604378 74.574C0.00604378 74.719 0 74.858 0 75.0031C0 116.427 33.5791 150.006 75.003 150.006C116.427 150.006 150.006 116.427 150.006 75.0031C150.006 74.858 150 74.719 150 74.574C149.764 115.798 116.276 149.148 75.003 149.148Z" fill="#212121" fill-opacity="0.1"/>
<path d="M87.3443 121.111L88.0091 121.776C108.038 116.119 122.73 97.7093 122.73 75.8551V75.0029C122.73 97.0929 107.712 115.671 87.3443 121.111Z" fill="white" fill-opacity="0.05"/>
<path d="M136.368 68.1829H75.0002C71.235 68.1829 68.1829 71.235 68.1829 75.0002C68.1829 78.7655 71.235 81.8176 75.0002 81.8176H136.362C140.128 81.8176 143.18 78.7655 143.18 75.0002C143.186 71.235 140.134 68.1829 136.368 68.1829Z" fill="#9E9E9E"/>
<path opacity="0.5" d="M136.368 68.1829H75.0002C71.235 68.1829 68.1829 71.235 68.1829 75.0002C68.1829 78.7655 71.235 81.8176 75.0002 81.8176H136.362C140.128 81.8176 143.18 78.7655 143.18 75.0002C143.186 71.235 140.134 68.1829 136.368 68.1829Z" fill="#BDBDBD"/>
<path d="M13.6347 80.1162C16.4586 80.1162 18.7477 77.827 18.7477 75.0032C18.7477 72.1793 16.4586 69.8901 13.6347 69.8901C10.8109 69.8901 8.5217 72.1793 8.5217 75.0032C8.5217 77.827 10.8109 80.1162 13.6347 80.1162Z" fill="#BDBDBD"/>
<path d="M75.0027 18.7478C77.8265 18.7478 80.1157 16.4586 80.1157 13.6347C80.1157 10.8109 77.8265 8.52173 75.0027 8.52173C72.1788 8.52173 69.8896 10.8109 69.8896 13.6347C69.8896 16.4586 72.1788 18.7478 75.0027 18.7478Z" fill="#BDBDBD"/>
<path d="M75.0027 141.478C77.8265 141.478 80.1157 139.189 80.1157 136.365C80.1157 133.541 77.8265 131.252 75.0027 131.252C72.1788 131.252 69.8896 133.541 69.8896 136.365C69.8896 139.189 72.1788 141.478 75.0027 141.478Z" fill="#BDBDBD"/>
<path d="M31.5362 36.7221C34.36 36.7221 36.6492 34.433 36.6492 31.6091C36.6492 28.7853 34.36 26.4961 31.5362 26.4961C28.7123 26.4961 26.4232 28.7853 26.4232 31.6091C26.4232 34.433 28.7123 36.7221 31.5362 36.7221Z" fill="#BDBDBD"/>
<path d="M31.5362 123.583C34.36 123.583 36.6492 121.294 36.6492 118.47C36.6492 115.646 34.36 113.357 31.5362 113.357C28.7123 113.357 26.4232 115.646 26.4232 118.47C26.4232 121.294 28.7123 123.583 31.5362 123.583Z" fill="#BDBDBD"/>
<path d="M118.47 123.583C121.294 123.583 123.583 121.294 123.583 118.47C123.583 115.646 121.294 113.357 118.47 113.357C115.646 113.357 113.357 115.646 113.357 118.47C113.357 121.294 115.646 123.583 118.47 123.583Z" fill="#757575"/>
<path d="M75.0028 69.0377H136.365C139.985 69.0377 142.947 71.8662 143.158 75.432C143.164 75.287 143.182 75.148 143.182 75.0029C143.182 71.2376 140.13 68.1855 136.365 68.1855H75.0028C71.2376 68.1855 68.1855 71.2376 68.1855 75.0029C68.1855 75.148 68.1915 75.287 68.2097 75.432C68.4212 71.8662 71.3766 69.0377 75.0028 69.0377Z" fill="white" fill-opacity="0.2"/>
<path d="M143.158 75.426C142.935 78.9858 139.979 81.8203 136.365 81.8203H75.0028C71.3826 81.8203 68.4212 78.9918 68.2097 75.426C68.1915 75.5711 68.1855 75.7101 68.1855 75.8491C68.1855 79.6143 71.2376 82.6665 75.0028 82.6665H136.365C140.13 82.6665 143.182 79.6143 143.182 75.8491C143.182 75.7101 143.176 75.5711 143.158 75.426Z" fill="#212121" fill-opacity="0.2"/>
<path d="M75.003 28.1278C88.1784 28.1278 100.109 33.4704 108.751 42.107L128.454 22.3922C128.309 22.2472 128.17 22.1021 128.031 21.9631L108.751 41.2488C100.109 32.6122 88.1784 27.2696 75.003 27.2696C48.6402 27.2696 27.2755 48.6342 27.2755 74.9971C27.2755 75.1421 27.2815 75.2812 27.2815 75.4262C27.5112 49.2628 48.7852 28.1278 75.003 28.1278Z" fill="#212121" fill-opacity="0.1"/>
<path d="M75.003 150.006C116.426 150.006 150.006 116.426 150.006 75.003C150.006 33.58 116.426 0 75.003 0C33.58 0 0 33.58 0 75.003C0 116.426 33.58 150.006 75.003 150.006Z" fill="url(#paint0_radial)"/>
</g>
<defs>
<radialGradient id="paint0_radial" cx="0" cy="0" r="1" gradientUnits="userSpaceOnUse" gradientTransform="translate(21.9951 21.8243) scale(149.747)">
<stop stop-color="white" stop-opacity="0.1"/>
<stop offset="1" stop-color="white" stop-opacity="0"/>
</radialGradient>
<clipPath id="clip0">
<rect width="150" height="150" fill="white"/>
</clipPath>
</defs>
</svg>
