<svg width="12" height="12" viewBox="0 0 18 18" fill="none" xmlns="http://www.w3.org/2000/svg">
<path fill-rule="evenodd" clip-rule="evenodd" d="M2.33332 4.83333H3.99999V0.666664H14V4.83333H15.6667C16.5871 4.83333 17.3333 5.57952 17.3333 6.49999V13.1667C17.3333 14.0871 16.5871 14.8333 15.6667 14.8333H14V17.3333H3.99999V14.8333H2.33332C1.41285 14.8333 0.666656 14.0871 0.666656 13.1667V6.49999C0.666656 5.57952 1.41285 4.83333 2.33332 4.83333ZM12.3333 4.83333H5.66665V2.33333H12.3333V4.83333ZM15.6667 13.1667H14V11.5H3.99999V13.1667H2.33332V6.49999H15.6667V13.1667ZM12.3333 13.1667H5.66666V15.6667H12.3333V13.1667ZM14.8333 8.16666C14.8333 7.70642 14.4602 7.33333 14 7.33333C13.5398 7.33333 13.1667 7.70642 13.1667 8.16666C13.1667 8.6269 13.5398 8.99999 14 8.99999C14.4602 8.99999 14.8333 8.6269 14.8333 8.16666Z" fill="#FFB13C"/>
</svg>
