<svg width="12" height="12" viewBox="0 0 18 18" fill="none" xmlns="http://www.w3.org/2000/svg">
<path fill-rule="evenodd" clip-rule="evenodd" d="M7.30701 14.614C3.27146 14.614 0 11.3426 0 7.30701C0 3.27146 3.27146 0 7.30701 0C11.3426 0 14.614 3.27146 14.614 7.30701C14.614 8.99558 14.0413 10.5504 13.0794 11.7877L18 16.7083L16.7083 18L11.7877 13.0794C10.5504 14.0413 8.99558 14.614 7.30701 14.614ZM12.7874 7.30706C12.7874 10.3337 10.3338 12.7873 7.30716 12.7873C4.2805 12.7873 1.8269 10.3337 1.8269 7.30706C1.8269 4.2804 4.2805 1.82681 7.30716 1.82681C10.3338 1.82681 12.7874 4.2804 12.7874 7.30706Z" fill="#FFB13C"/>
</svg>
