<svg width="57" height="51" viewBox="0 0 57 51" fill="none" xmlns="http://www.w3.org/2000/svg">
<path fill-rule="evenodd" clip-rule="evenodd" d="M57 45.5338C57 42.09 51.1961 40.1768 48.2637 39.1383C46.492 38.4823 44.6592 37.8264 42.8875 37.1158C40.5048 36.1318 38.0611 34.9839 36.2894 33.1801C35.6785 32.5241 35.3119 32.0868 35.3119 31.2122C35.3119 29.955 35.6785 28.6978 35.9839 27.4952C36.4727 25.6367 37.5113 24.1061 38.3666 22.3569C39.3441 20.1704 39.7106 17.8746 40.1994 15.6334C40.3826 14.6495 40.6881 13.7203 40.6881 12.7363C40.6881 5.9582 36.717 0 28.4695 0C20.2219 0 16.2508 5.9582 16.2508 12.7363C16.2508 13.7203 16.6174 14.6495 16.8006 15.6334C17.3505 17.8746 17.6559 20.1704 18.6945 22.3569C19.5498 24.1061 20.6495 25.6367 21.0772 27.4952C21.4437 28.6978 21.7492 29.955 21.7492 31.2122C21.7492 32.0868 21.3826 32.5241 20.7717 33.1801C19 34.9839 16.5563 36.1318 14.1736 37.1158C12.4019 37.881 10.5691 38.4823 8.79743 39.1383C5.86495 40.2315 0 42.09 0 45.5338V51H57V47.8296V45.5338Z" fill="#BDBDBD"/>
</svg>
